<svg width="183" height="42" viewBox="0 0 183 42" fill="none" xmlns="http://www.w3.org/2000/svg">
<path d="M19.8873 22.9089L10.5854 17.0599C10.1077 16.7596 9.69759 16.3635 9.3809 15.8967C9.0642 15.4298 8.84786 14.9024 8.74554 14.3477C8.64322 13.793 8.65715 13.2231 8.78644 12.6741C8.91574 12.1251 9.1576 11.6088 9.49672 11.158L14.0597 3.34429C15.2824 1.25009 17.4612 0 19.8873 0C22.3133 0 24.4928 1.25009 25.7148 3.34429L30.2778 11.158C30.6166 11.6088 30.8583 12.1249 30.9874 12.6737C31.1166 13.2225 31.1305 13.7922 31.0282 14.3466C30.9259 14.9011 30.7097 15.4284 30.3932 15.8951C30.0767 16.3618 29.6668 16.7578 29.1894 17.0582L19.8873 22.9089ZM19.8873 3.55679C19.3295 3.55365 18.7808 3.69822 18.2971 3.9758C17.8133 4.25337 17.4118 4.65403 17.1333 5.13705L12.4415 13.1719L12.3539 13.2792C12.3073 13.3363 12.2734 13.4026 12.2544 13.4737C12.2354 13.5449 12.2318 13.6193 12.2438 13.692C12.2557 13.7646 12.2831 13.8339 12.3239 13.8952C12.3647 13.9565 12.4182 14.0085 12.4806 14.0475L19.8873 18.7066L27.2939 14.0475C27.3564 14.0084 27.4098 13.9565 27.4507 13.8951C27.4915 13.8338 27.5188 13.7644 27.5308 13.6917C27.5427 13.619 27.5391 13.5446 27.52 13.4734C27.5009 13.4022 27.467 13.3359 27.4203 13.2789L27.3334 13.1719L22.6412 5.13705C22.3627 4.65406 21.9611 4.25341 21.4774 3.97584C20.9937 3.69827 20.445 3.55369 19.8873 3.55679Z" fill="white"/>
<path d="M15.5792 13.2922L19.7186 15.8958C19.7692 15.9275 19.8276 15.9443 19.8873 15.9443C19.9469 15.9443 20.0054 15.9275 20.0559 15.8958L24.1954 13.2922C24.2354 13.2667 24.2692 13.2327 24.2944 13.1925C24.3195 13.1523 24.3353 13.107 24.3406 13.0598C24.3459 13.0127 24.3406 12.965 24.3251 12.9203C24.3095 12.8755 24.2841 12.8347 24.2508 12.8011C21.342 9.82673 18.4332 9.82673 15.5245 12.8011C15.4911 12.8347 15.4657 12.8754 15.4502 12.9202C15.4346 12.9649 15.4293 13.0126 15.4345 13.0597C15.4398 13.1067 15.4555 13.1521 15.4805 13.1923C15.5055 13.2325 15.5392 13.2666 15.5792 13.2922Z" fill="white"/>
<path d="M39.1374 26.6567L36.194 21.5425C35.8576 20.9578 35.4063 20.4473 34.8673 20.0415C34.3282 19.6358 33.7126 19.3433 33.0574 19.1816C32.4023 19.02 31.7212 18.9925 31.0551 19.1008C30.3891 19.2091 29.7519 19.4511 29.1818 19.812L19.9015 25.6894L10.6256 19.8127C10.0556 19.4517 9.41832 19.2097 8.75223 19.1014C8.08614 18.993 7.405 19.0205 6.74982 19.1821C6.09464 19.3438 5.47898 19.6364 4.9399 20.0421C4.40082 20.4479 3.94948 20.9585 3.61306 21.5432L0.669666 26.6574C0.0241766 27.7737 -0.163716 29.0965 0.145398 30.3483C0.454513 31.6001 1.23662 32.6836 2.32766 33.3716L14.7208 41.2196C15.5172 41.7278 16.4422 41.9981 17.3871 41.9986C18.2709 41.9987 19.139 41.7658 19.9039 41.3234C20.6692 41.7665 21.538 41.9999 22.4224 42C23.3667 41.9988 24.2911 41.728 25.0867 41.2196L37.4794 33.3702C38.5703 32.6822 39.3523 31.5988 39.6614 30.3472C39.9705 29.0956 39.7827 27.773 39.1374 26.6567ZM20.977 30.8814C21.2361 31.0449 21.4218 31.3023 21.4952 31.5996C21.5685 31.897 21.5238 32.2111 21.3704 32.4762L19.9039 35.0245L18.437 32.4759C18.2837 32.2108 18.239 31.8966 18.3125 31.5992C18.3859 31.3019 18.5716 31.0445 18.8308 30.8811L19.9042 30.2014L20.977 30.8814ZM4.36934 30.1515C4.11026 29.9881 3.92455 29.7307 3.85115 29.4334C3.77775 29.1361 3.82236 28.8219 3.97562 28.5567L6.91902 23.4422C6.99892 23.3033 7.10613 23.182 7.23418 23.0857C7.36222 22.9893 7.50846 22.9198 7.66409 22.8814C7.81971 22.8431 7.9815 22.8366 8.1397 22.8623C8.29791 22.8881 8.44926 22.9456 8.58463 23.0314L16.368 27.9618C15.4246 28.7036 14.7804 29.7605 14.5536 30.9387C14.3267 32.1168 14.5325 33.3372 15.1332 34.3759L17.321 38.1778C17.1222 38.1673 16.9294 38.1064 16.7607 38.0009L4.36934 30.1515ZM35.4385 30.1515L23.0454 38.0009C22.8776 38.1059 22.6859 38.1667 22.4882 38.1774L24.6757 34.3756C25.2768 33.3369 25.4827 32.1163 25.2557 30.938C25.0287 29.7597 24.3839 28.7028 23.4398 27.9615L31.2239 23.0314C31.4128 22.9107 31.6323 22.8465 31.8565 22.8462C31.9535 22.8461 32.0501 22.8577 32.1443 22.8808C32.3001 22.9187 32.4466 22.988 32.5747 23.0845C32.7027 23.181 32.8098 23.3026 32.8891 23.4419L35.8325 28.5557C35.9862 28.821 36.0309 29.1355 35.9575 29.433C35.884 29.7306 35.6979 29.9882 35.4385 30.1515Z" fill="white"/>
<path d="M86.6826 18.0712V21.0301H82.2464C81.6594 21.0316 81.097 21.2656 80.6822 21.6809C80.2675 22.0963 80.0343 22.6591 80.0337 23.246C80.0337 23.8343 80.2674 24.3985 80.6834 24.8145C81.0994 25.2304 81.6636 25.4641 82.2518 25.4641H86.6881V28.4231H81.5066C80.8268 28.4231 80.1537 28.2891 79.5256 28.029C78.8976 27.7688 78.3269 27.3874 77.8463 26.9067C77.3657 26.4259 76.9844 25.8552 76.7244 25.2271C76.4643 24.599 76.3305 23.9258 76.3307 23.246C76.3307 22.5663 76.4646 21.8932 76.7247 21.2653C76.9848 20.6373 77.3661 20.0667 77.8467 19.5861C78.3273 19.1054 78.8979 18.7242 79.5259 18.4641C80.1539 18.2039 80.8269 18.0701 81.5066 18.0701L86.6826 18.0712Z" fill="white"/>
<path d="M140.183 18.0712V21.0301H135.746C135.158 21.0301 134.594 21.2635 134.179 21.679C133.763 22.0945 133.529 22.6581 133.528 23.246C133.528 23.8343 133.762 24.3985 134.178 24.8145C134.594 25.2304 135.158 25.4641 135.746 25.4641H140.183V28.4231H135.006C134.327 28.4231 133.653 28.2891 133.025 28.029C132.397 27.7688 131.827 27.3874 131.346 26.9067C130.865 26.4259 130.484 25.8552 130.224 25.2271C129.964 24.599 129.83 23.9258 129.831 23.246C129.831 21.8733 130.376 20.5567 131.347 19.5861C132.317 18.6154 133.634 18.0701 135.006 18.0701L140.183 18.0712Z" fill="white"/>
<path d="M170.629 28.4229H166.931V18.071H170.629V28.4229Z" fill="white"/>
<path d="M69.0419 18.071C68.3621 18.0709 67.689 18.2046 67.061 18.4646C66.433 18.7246 65.8623 19.1057 65.3816 19.5863C64.9008 20.0668 64.5195 20.6373 64.2592 21.2652C63.999 21.8932 63.865 22.5662 63.8648 23.2459C63.8648 23.9257 63.9987 24.5989 64.2589 25.2269C64.5191 25.8549 64.9004 26.4256 65.3812 26.9062C65.8619 27.3869 66.4327 27.7681 67.0608 28.0282C67.6889 28.2882 68.362 28.422 69.0419 28.4218H69.4692L71.3761 25.4169H69.4353C68.8598 25.4169 68.3079 25.1883 67.9009 24.7813C67.494 24.3744 67.2654 23.8225 67.2654 23.247C67.2654 22.6715 67.494 22.1196 67.9009 21.7127C68.3079 21.3057 68.8598 21.0771 69.4353 21.0771H71.26V28.4197H74.9575V18.071H69.0419Z" fill="white"/>
<path d="M112.833 18.3242C111.46 18.3242 110.144 18.8695 109.173 19.8402C108.202 20.8108 107.656 22.1273 107.656 23.5002C107.656 24.18 107.79 24.8531 108.05 25.4812C108.31 26.1092 108.692 26.6799 109.172 27.1605C109.653 27.6411 110.224 28.0224 110.852 28.2824C111.48 28.5425 112.153 28.6763 112.833 28.6761H113.26L115.164 25.6701H113.226C112.651 25.6701 112.099 25.4414 111.692 25.0345C111.285 24.6276 111.057 24.0757 111.057 23.5002C111.057 22.9247 111.285 22.3728 111.692 21.9658C112.099 21.5589 112.651 21.3303 113.226 21.3303H115.051V28.6728H118.749V18.3242H112.833Z" fill="white"/>
<path d="M159.421 18.071C158.741 18.0709 158.068 18.2046 157.44 18.4646C156.812 18.7246 156.242 19.1058 155.761 19.5863C155.28 20.0669 154.899 20.6374 154.639 21.2653C154.379 21.8932 154.245 22.5662 154.245 23.2459C154.245 23.9257 154.379 24.5988 154.639 25.2268C154.899 25.8549 155.28 26.4255 155.761 26.9062C156.241 27.3868 156.812 27.7681 157.44 28.0281C158.068 28.2882 158.741 28.422 159.421 28.4218H159.848L161.752 25.4158H159.815C159.53 25.4158 159.248 25.3597 158.985 25.2506C158.722 25.1416 158.483 24.9817 158.281 24.7802C158.08 24.5787 157.92 24.3395 157.811 24.0763C157.702 23.813 157.646 23.5309 157.646 23.2459C157.646 22.9609 157.702 22.6788 157.811 22.4155C157.92 22.1523 158.08 21.913 158.281 21.7116C158.483 21.5101 158.722 21.3502 158.985 21.2412C159.248 21.1321 159.53 21.076 159.815 21.076H161.64V28.4186H165.338V18.071H159.421Z" fill="white"/>
<path d="M182.894 23.246C182.894 22.5662 182.76 21.8931 182.5 21.265C182.24 20.637 181.858 20.0663 181.378 19.5857C180.897 19.105 180.326 18.7238 179.698 18.4637C179.07 18.2037 178.397 18.0699 177.717 18.0701H172.224V28.422H175.925V21.0794H177.327C177.612 21.0793 177.894 21.1353 178.158 21.2443C178.421 21.3533 178.66 21.5131 178.862 21.7146C179.064 21.9161 179.223 22.1553 179.333 22.4187C179.442 22.682 179.498 22.9643 179.498 23.2493V28.4253H182.895L182.894 23.246Z" fill="white"/>
<path d="M99.2449 18.0712C99.2449 18.0712 95.1254 18.0712 95.0619 18.0712L91.9934 22.5074V13.3237H88.2969V28.4231H91.9944V25.4959L94.515 28.4176H99.246L94.8789 23.8707L99.2449 18.0712Z" fill="white"/>
<path d="M147.334 18.0712C146.704 18.0704 146.079 18.1779 145.485 18.389V13.3237H141.788V28.4231H145.485V23.4291C145.485 22.9387 145.68 22.4685 146.027 22.1218C146.374 21.775 146.844 21.5803 147.334 21.5803C147.825 21.5803 148.295 21.775 148.642 22.1218C148.988 22.4685 149.183 22.9387 149.183 23.4291V28.4231H152.861V23.6011C152.861 21.1978 152.156 18.0712 147.334 18.0712Z" fill="white"/>
<path d="M56.7535 18.0712C56.1236 18.0705 55.4982 18.178 54.9047 18.389V13.3237H51.2115V28.4231H54.9047V23.4291C54.9047 23.1863 54.9525 22.9459 55.0454 22.7215C55.1383 22.4972 55.2745 22.2934 55.4462 22.1218C55.6179 21.9501 55.8217 21.8139 56.046 21.721C56.2703 21.6281 56.5107 21.5803 56.7535 21.5803C56.9963 21.5803 57.2367 21.6281 57.461 21.721C57.6853 21.8139 57.8891 21.9501 58.0608 22.1218C58.2324 22.2934 58.3686 22.4972 58.4615 22.7215C58.5544 22.9459 58.6023 23.1863 58.6023 23.4291V28.4231H62.2801V23.6011C62.2801 21.1978 61.5765 18.0712 56.7535 18.0712Z" fill="white"/>
<path d="M126.192 25.1978H122.477V21.4827H126.192V25.1978Z" fill="white"/>
<path d="M103.938 25.1978H100.222V21.4827H103.938V25.1978Z" fill="white"/>
</svg>
