<svg width="24" height="24" viewBox="0 0 24 24" fill="none" xmlns="http://www.w3.org/2000/svg">
<rect width="24" height="24" rx="4" fill="#20435A"/>
<path fill-rule="evenodd" clip-rule="evenodd" d="M7.46557 14.2524V12.3403V12V9.74761V9.74281L10.2932 11.9999L7.46557 14.257V14.2524ZM7.46557 14.2584V14.2588L7.46646 19.6266V19.6631L7.46281 19.6603L7.41977 19.6266L4.05674 16.981L4.0485 16.9746L4 16.9372V7.06279L4.0485 7.0254L4.05674 7.01897L7.41977 4.37341L7.46281 4.33965L7.46646 4.33691V4.37341L7.46557 9.74123V9.74144L14.3757 4.37341L14.4196 4.33965L14.4233 4.33691H20L19.9533 4.37341L10.2934 11.9999L19.9533 19.6264L20 19.6629H14.4233L14.4196 19.6602L14.3757 19.6264L7.46557 14.2584Z" fill="#4A9079"/>
</svg>
